<svg xmlns="http://www.w3.org/2000/svg" viewBox="0 0 134.88 138.84"><defs><style>.cls-1{fill:#292a2c;}</style></defs><title>Asset 9</title><g id="Layer_2" data-name="Layer 2"><g id="Layer_1-2" data-name="Layer 1"><path class="cls-1" d="M65.7,0H56.17A.47.47,0,0,0,55.7.5V14.61A55.44,55.44,0,0,0,42,18.9V0H28V28.14A55.77,55.77,0,0,0,14,47.68V0H0V138.82H14V91.18a55.77,55.77,0,0,0,14,19.54v28.1H42V120a55,55,0,0,0,13.75,4.28v14.12a.49.49,0,0,0,.49.48H65.7A69.41,69.41,0,0,0,65.7,0ZM23.59,69.43A41.71,41.71,0,0,1,55.7,28.9V43.49a27.65,27.65,0,0,0,0,51.92V110A41.71,41.71,0,0,1,23.59,69.43ZM69.7,82.3a13.62,13.62,0,0,0,0-25.74V42.17a27.65,27.65,0,0,1,0,54.56Zm0,42.38V110.85a41.64,41.64,0,0,0,0-82.8V14.19a55.41,55.41,0,0,1,0,110.49Z"/></g></g></svg>